<svg version="1.1" id="Layer_1" xmlns="http://www.w3.org/2000/svg" xmlns:xlink="http://www.w3.org/1999/xlink" x="0px" y="0px"
	 width="100%" viewBox="0 0 274 300" enable-background="new 0 0 274 300" xml:space="preserve">
<path fill="#121212" opacity="1.000000" stroke="none" 
	d="
M141.000000,301.000000 
	C94.020256,301.000000 47.540516,301.000000 1.030387,301.000000 
	C1.030387,201.063828 1.030387,101.127647 1.030387,1.095734 
	C92.229637,1.095734 183.459412,1.095734 274.844604,1.095734 
	C274.844604,100.999809 274.844604,200.999878 274.844604,301.000000 
	C230.461166,301.000000 185.980576,301.000000 141.000000,301.000000 
M248.474121,283.439026 
	C252.642960,283.439026 256.811798,283.439026 260.980652,283.439026 
	C261.117371,282.893250 261.254120,282.347443 261.390839,281.801666 
	C234.872787,247.887680 208.354736,213.973694 181.294479,179.366302 
	C187.178391,176.679321 192.155945,174.902084 196.634445,172.274323 
	C214.986618,161.506180 225.972839,144.972794 230.717300,124.725632 
	C236.537354,99.888336 232.530304,76.395088 216.274628,56.143623 
	C200.452621,36.432400 178.697952,28.020527 154.106613,27.658016 
	C115.454132,27.088221 76.786835,27.477638 38.126007,27.558105 
	C30.265154,27.574465 27.834175,30.270435 27.833807,38.161888 
	C27.830130,117.151222 27.807613,196.140594 27.943542,275.129700 
	C27.947762,277.581207 29.003403,281.425201 30.645449,282.137207 
	C32.846012,283.091400 36.670174,282.477173 38.805321,281.051178 
	C52.075249,272.188568 65.126610,262.993256 78.127510,253.735596 
	C84.700912,249.054825 88.284119,242.998871 87.961601,234.336197 
	C87.428787,220.025116 87.804039,205.679428 87.839790,191.348419 
	C87.855453,185.072037 89.528709,183.235168 95.696190,183.162445 
	C101.684189,183.091812 107.765343,182.762512 113.631981,183.669571 
	C117.058235,184.199341 121.060684,186.173492 123.225861,188.799118 
	C132.944168,200.584137 142.097916,212.834763 151.452835,224.919342 
	C163.555008,240.552765 175.602478,256.228943 187.777237,271.805634 
	C194.027908,279.802948 202.278244,283.416229 212.535751,283.203125 
	C224.187195,282.961090 235.851410,283.333618 248.474121,283.439026 
M233.514511,284.445953 
	C233.514511,284.445953 233.562683,284.531586 233.514511,284.445953 
z"/>
<path fill="#FEFEFE" opacity="1.000000" stroke="none" 
	d="
M247.992096,283.439026 
	C235.851410,283.333618 224.187195,282.961090 212.535751,283.203125 
	C202.278244,283.416229 194.027908,279.802948 187.777237,271.805634 
	C175.602478,256.228943 163.555008,240.552765 151.452835,224.919342 
	C142.097916,212.834763 132.944168,200.584137 123.225861,188.799118 
	C121.060684,186.173492 117.058235,184.199341 113.631981,183.669571 
	C107.765343,182.762512 101.684189,183.091812 95.696190,183.162445 
	C89.528709,183.235168 87.855453,185.072037 87.839790,191.348419 
	C87.804039,205.679428 87.428787,220.025116 87.961601,234.336197 
	C88.284119,242.998871 84.700912,249.054825 78.127510,253.735596 
	C65.126610,262.993256 52.075249,272.188568 38.805321,281.051178 
	C36.670174,282.477173 32.846012,283.091400 30.645449,282.137207 
	C29.003403,281.425201 27.947762,277.581207 27.943542,275.129700 
	C27.807613,196.140594 27.830130,117.151222 27.833807,38.161888 
	C27.834175,30.270435 30.265154,27.574465 38.126007,27.558105 
	C76.786835,27.477638 115.454132,27.088221 154.106613,27.658016 
	C178.697952,28.020527 200.452621,36.432400 216.274628,56.143623 
	C232.530304,76.395088 236.537354,99.888336 230.717300,124.725632 
	C225.972839,144.972794 214.986618,161.506180 196.634445,172.274323 
	C192.155945,174.902084 187.178391,176.679321 181.294479,179.366302 
	C208.354736,213.973694 234.872787,247.887680 261.390839,281.801666 
	C261.254120,282.347443 261.117371,282.893250 260.980652,283.439026 
	C256.811798,283.439026 252.642960,283.439026 247.992096,283.439026 
M171.251068,84.248451 
	C165.845047,79.572403 159.620956,76.250999 152.491318,76.084587 
	C132.861725,75.626404 113.220963,75.623146 93.584206,75.515228 
	C89.238914,75.491341 88.096146,78.198196 88.121506,82.136200 
	C88.222290,97.787460 88.160522,113.439751 88.164078,129.091660 
	C88.165627,135.909088 89.386581,137.177277 96.262413,137.193893 
	C110.582161,137.228516 124.911369,137.506485 139.217621,137.065613 
	C145.602600,136.868866 152.054764,135.633408 158.281387,134.085022 
	C182.802460,127.987419 184.955688,98.663567 171.251068,84.248451 
z"/>
<path fill="#070707" opacity="1.000000" stroke="none" 
	d="
M233.538605,284.488770 
	C233.562683,284.531586 233.514511,284.445953 233.538605,284.488770 
z"/>
<path fill="#141414" opacity="1.000000" stroke="none" 
	d="
M171.493546,84.514969 
	C184.955688,98.663567 182.802460,127.987419 158.281387,134.085022 
	C152.054764,135.633408 145.602600,136.868866 139.217621,137.065613 
	C124.911369,137.506485 110.582161,137.228516 96.262413,137.193893 
	C89.386581,137.177277 88.165627,135.909088 88.164078,129.091660 
	C88.160522,113.439751 88.222290,97.787460 88.121506,82.136200 
	C88.096146,78.198196 89.238914,75.491341 93.584206,75.515228 
	C113.220963,75.623146 132.861725,75.626404 152.491318,76.084587 
	C159.620956,76.250999 165.845047,79.572403 171.493546,84.514969 
z"/>
</svg>